<svg xmlns="http://www.w3.org/2000/svg" xmlns:xlink="http://www.w3.org/1999/xlink" width="400" zoomAndPan="magnify" viewBox="0 0 300 74.999997" height="100" preserveAspectRatio="xMidYMid meet" version="1.0"><defs><clipPath id="0cc74b35df"><path d="M 91 23 L 200.296875 23 L 200.296875 52 L 91 52 Z M 91 23 " clip-rule="nonzero"/></clipPath><clipPath id="5d6ac56dee"><path d="M 90.046875 23 L 196 23 L 196 48 L 90.046875 48 Z M 90.046875 23 " clip-rule="nonzero"/></clipPath><clipPath id="cc93a45022"><path d="M 90.046875 23 L 116 23 L 116 48 L 90.046875 48 Z M 90.046875 23 " clip-rule="nonzero"/></clipPath><clipPath id="d15962b9fd"><path d="M 90.046875 22.5 L 200.296875 22.5 L 200.296875 52.5 L 90.046875 52.5 Z M 90.046875 22.5 " clip-rule="nonzero"/></clipPath></defs><g clip-path="url(#0cc74b35df)"><path fill="#5f5353" d="M 194.933594 23.855469 L 199.089844 28.359375 L 199.101562 28.347656 C 199.734375 28.929688 200.144531 29.761719 200.144531 30.703125 L 200.144531 48.804688 C 200.144531 50.5625 198.71875 51.988281 196.960938 51.988281 L 97.886719 51.988281 C 96.9375 51.988281 96.09375 51.574219 95.511719 50.925781 L 91.316406 46.378906 " fill-opacity="1" fill-rule="nonzero"/></g><g clip-path="url(#5d6ac56dee)"><path fill="#ffffff" d="M 192.792969 47.492188 L 93.71875 47.492188 C 91.964844 47.492188 90.535156 46.066406 90.535156 44.308594 L 90.535156 26.199219 C 90.535156 24.445312 91.964844 23.019531 93.71875 23.019531 L 192.789062 23.019531 C 194.542969 23.019531 195.972656 24.445312 195.972656 26.199219 L 195.972656 44.304688 C 195.976562 46.066406 194.550781 47.492188 192.792969 47.492188 Z M 192.792969 47.492188 " fill-opacity="1" fill-rule="nonzero"/></g><g clip-path="url(#cc93a45022)"><path fill="#ecc65b" d="M 115.046875 47.492188 L 94.144531 47.492188 C 92.148438 47.492188 90.535156 46.066406 90.535156 44.308594 L 90.535156 26.199219 C 90.535156 24.445312 92.15625 23.019531 94.144531 23.019531 L 115.054688 23.019531 L 115.054688 47.492188 Z M 115.046875 47.492188 " fill-opacity="1" fill-rule="nonzero"/></g><path fill="#3d3939" d="M 126.507812 35.804688 C 126.507812 37.183594 126.113281 38.242188 125.335938 38.972656 C 124.554688 39.707031 123.414062 40.070312 121.929688 40.070312 L 119.554688 40.070312 L 119.554688 31.683594 L 122.1875 31.683594 C 123.554688 31.683594 124.613281 32.046875 125.375 32.765625 C 126.121094 33.496094 126.507812 34.507812 126.507812 35.804688 Z M 124.65625 35.851562 C 124.65625 34.046875 123.867188 33.152344 122.277344 33.152344 L 121.328125 33.152344 L 121.328125 38.613281 L 122.089844 38.613281 C 123.800781 38.609375 124.65625 37.691406 124.65625 35.851562 Z M 124.65625 35.851562 " fill-opacity="1" fill-rule="nonzero"/><path fill="#3d3939" d="M 135.855469 35.871094 C 135.855469 37.261719 135.507812 38.328125 134.824219 39.070312 C 134.140625 39.8125 133.144531 40.191406 131.863281 40.191406 C 130.578125 40.191406 129.585938 39.8125 128.902344 39.070312 C 128.210938 38.328125 127.871094 37.261719 127.871094 35.863281 C 127.871094 34.46875 128.21875 33.40625 128.902344 32.664062 C 129.597656 31.929688 130.578125 31.566406 131.867188 31.566406 C 133.15625 31.566406 134.144531 31.929688 134.828125 32.675781 C 135.511719 33.410156 135.855469 34.480469 135.855469 35.871094 Z M 129.726562 35.871094 C 129.726562 36.804688 129.902344 37.507812 130.253906 37.980469 C 130.613281 38.453125 131.144531 38.691406 131.84375 38.691406 C 133.257812 38.691406 133.976562 37.746094 133.976562 35.871094 C 133.976562 33.980469 133.277344 33.035156 131.867188 33.035156 C 131.167969 33.035156 130.621094 33.273438 130.265625 33.746094 C 129.914062 34.234375 129.726562 34.933594 129.726562 35.871094 Z M 129.726562 35.871094 " fill-opacity="1" fill-rule="nonzero"/><path fill="#3d3939" d="M 145.757812 40.078125 L 143.730469 40.078125 L 142.605469 35.671875 C 142.566406 35.515625 142.488281 35.191406 142.394531 34.699219 C 142.285156 34.210938 142.230469 33.878906 142.21875 33.707031 C 142.203125 33.910156 142.140625 34.246094 142.046875 34.699219 C 141.949219 35.15625 141.882812 35.480469 141.835938 35.671875 L 140.699219 40.078125 L 138.683594 40.078125 L 136.542969 31.683594 L 138.289062 31.683594 L 139.359375 36.265625 C 139.546875 37.117188 139.679688 37.847656 139.769531 38.464844 C 139.785156 38.242188 139.847656 37.90625 139.925781 37.453125 C 140.007812 36.996094 140.085938 36.644531 140.15625 36.390625 L 141.382812 31.699219 L 143.058594 31.699219 L 144.28125 36.390625 C 144.34375 36.601562 144.394531 36.917969 144.484375 37.355469 C 144.5625 37.789062 144.628906 38.160156 144.671875 38.464844 C 144.707031 38.164062 144.769531 37.800781 144.859375 37.34375 C 144.941406 36.902344 145.019531 36.535156 145.089844 36.265625 L 146.164062 31.683594 L 147.910156 31.683594 Z M 145.757812 40.078125 " fill-opacity="1" fill-rule="nonzero"/><path fill="#3d3939" d="M 156.386719 40.078125 L 154.125 40.078125 L 150.480469 33.730469 L 150.433594 33.730469 C 150.511719 34.851562 150.539062 35.648438 150.539062 36.132812 L 150.539062 40.078125 L 148.953125 40.078125 L 148.953125 31.683594 L 151.199219 31.683594 L 154.84375 37.960938 L 154.878906 37.960938 C 154.820312 36.871094 154.796875 36.101562 154.796875 35.648438 L 154.796875 31.691406 L 156.398438 31.691406 L 156.398438 40.078125 Z M 156.386719 40.078125 " fill-opacity="1" fill-rule="nonzero"/><path fill="#3d3939" d="M 158.496094 40.078125 L 158.496094 31.683594 L 160.269531 31.683594 L 160.269531 38.597656 L 163.675781 38.597656 L 163.675781 40.078125 Z M 158.496094 40.078125 " fill-opacity="1" fill-rule="nonzero"/><path fill="#3d3939" d="M 172.75 35.871094 C 172.75 37.261719 172.402344 38.328125 171.71875 39.070312 C 171.035156 39.8125 170.039062 40.191406 168.757812 40.191406 C 167.472656 40.191406 166.480469 39.8125 165.796875 39.070312 C 165.113281 38.328125 164.765625 37.261719 164.765625 35.859375 C 164.765625 34.453125 165.113281 33.398438 165.796875 32.65625 C 166.492188 31.925781 167.472656 31.558594 168.761719 31.558594 C 170.058594 31.558594 171.042969 31.925781 171.722656 32.667969 C 172.40625 33.410156 172.75 34.480469 172.75 35.871094 Z M 166.625 35.871094 C 166.625 36.804688 166.796875 37.507812 167.152344 37.980469 C 167.503906 38.453125 168.039062 38.691406 168.738281 38.691406 C 170.152344 38.691406 170.875 37.746094 170.875 35.871094 C 170.875 33.980469 170.171875 33.035156 168.761719 33.035156 C 168.0625 33.035156 167.515625 33.273438 167.164062 33.746094 C 166.808594 34.234375 166.625 34.933594 166.625 35.871094 Z M 166.625 35.871094 " fill-opacity="1" fill-rule="nonzero"/><path fill="#3d3939" d="M 179.613281 40.078125 L 179.007812 38.082031 L 175.949219 38.082031 L 175.34375 40.078125 L 173.425781 40.078125 L 176.386719 31.660156 L 178.558594 31.660156 L 181.523438 40.078125 Z M 178.582031 36.59375 C 178.023438 34.785156 177.707031 33.757812 177.636719 33.527344 C 177.570312 33.285156 177.507812 33.101562 177.480469 32.96875 C 177.351562 33.460938 176.988281 34.664062 176.398438 36.59375 Z M 178.582031 36.59375 " fill-opacity="1" fill-rule="nonzero"/><path fill="#3d3939" d="M 189.546875 35.804688 C 189.546875 37.183594 189.148438 38.242188 188.371094 38.972656 C 187.589844 39.707031 186.441406 40.070312 184.964844 40.070312 L 182.59375 40.070312 L 182.59375 31.683594 L 185.222656 31.683594 C 186.589844 31.683594 187.652344 32.046875 188.414062 32.765625 C 189.167969 33.496094 189.546875 34.507812 189.546875 35.804688 Z M 187.691406 35.851562 C 187.691406 34.046875 186.902344 33.152344 185.3125 33.152344 L 184.367188 33.152344 L 184.367188 38.613281 L 185.128906 38.613281 C 186.835938 38.609375 187.691406 37.691406 187.691406 35.851562 Z M 187.691406 35.851562 " fill-opacity="1" fill-rule="nonzero"/><g clip-path="url(#d15962b9fd)"><path fill="#040000" d="M 200.636719 48.8125 L 200.636719 30.707031 C 200.636719 29.675781 200.203125 28.683594 199.441406 27.988281 L 199.363281 27.921875 L 195.738281 23.988281 C 195.058594 23.089844 194 22.515625 192.792969 22.515625 L 93.71875 22.515625 C 91.695312 22.527344 90.046875 24.175781 90.046875 26.199219 L 90.046875 44.304688 C 90.046875 45.226562 90.394531 46.066406 90.949219 46.714844 L 95.132812 51.261719 C 95.828125 52.042969 96.832031 52.484375 97.875 52.484375 L 196.941406 52.484375 C 198.988281 52.484375 200.636719 50.835938 200.636719 48.8125 Z M 196.953125 51.503906 L 196.300781 51.503906 L 193.039062 47.964844 C 194.953125 47.839844 196.476562 46.25 196.476562 44.304688 L 196.476562 43.96875 L 199.644531 47.410156 L 199.644531 48.816406 C 199.640625 50.296875 198.433594 51.503906 196.953125 51.503906 Z M 105.320312 47.984375 L 108.566406 51.503906 L 103.261719 51.503906 L 100.015625 47.984375 Z M 106.660156 47.984375 L 111.964844 47.984375 L 115.214844 51.503906 L 109.910156 51.503906 Z M 113.304688 47.984375 L 118.609375 47.984375 L 121.855469 51.503906 L 116.550781 51.503906 Z M 119.949219 47.984375 L 125.257812 47.984375 L 128.503906 51.503906 L 123.199219 51.503906 Z M 126.59375 47.984375 L 131.898438 47.984375 L 135.148438 51.503906 L 129.84375 51.503906 Z M 133.242188 47.984375 L 138.539062 47.984375 L 141.789062 51.503906 L 136.484375 51.503906 Z M 139.894531 47.984375 L 145.195312 47.984375 L 148.441406 51.503906 L 143.136719 51.503906 Z M 146.535156 47.984375 L 151.839844 47.984375 L 155.089844 51.503906 L 149.785156 51.503906 Z M 153.179688 47.984375 L 158.484375 47.984375 L 161.730469 51.503906 L 156.425781 51.503906 Z M 159.824219 47.984375 L 165.128906 47.984375 L 168.378906 51.503906 L 163.074219 51.503906 Z M 166.46875 47.984375 L 171.773438 47.984375 L 175.019531 51.503906 L 169.714844 51.503906 Z M 173.113281 47.984375 L 178.421875 47.984375 L 181.667969 51.503906 L 176.363281 51.503906 Z M 179.757812 47.984375 L 185.0625 47.984375 L 188.3125 51.503906 L 183.003906 51.503906 Z M 186.40625 47.984375 L 191.710938 47.984375 L 194.957031 51.503906 L 189.652344 51.503906 Z M 196.46875 37.867188 L 199.640625 41.304688 L 199.640625 45.953125 L 196.46875 42.511719 Z M 199.640625 39.855469 L 196.46875 36.414062 L 196.46875 31.726562 L 199.640625 35.167969 Z M 199.09375 29.070312 C 199.453125 29.535156 199.644531 30.113281 199.644531 30.703125 L 199.644531 33.710938 L 196.476562 30.269531 L 196.476562 26.253906 L 198.730469 28.707031 Z M 192.792969 23.507812 C 193.476562 23.507812 194.105469 23.765625 194.582031 24.1875 L 194.988281 24.628906 C 195.304688 25.074219 195.492188 25.613281 195.492188 26.195312 L 195.492188 44.296875 C 195.492188 45.785156 194.289062 46.988281 192.800781 46.988281 L 115.546875 46.988281 L 115.546875 23.507812 Z M 114.554688 23.507812 L 114.554688 46.988281 L 94.144531 46.988281 C 92.429688 46.988281 91.027344 45.785156 91.027344 44.296875 L 91.027344 26.195312 C 91.027344 24.707031 92.425781 23.503906 94.144531 23.503906 C 94.144531 23.507812 114.554688 23.507812 114.554688 23.507812 Z M 95.871094 50.597656 L 93.445312 47.964844 C 93.539062 47.976562 93.628906 47.976562 93.726562 47.976562 L 98.675781 47.976562 L 101.925781 51.496094 L 97.886719 51.496094 C 97.113281 51.503906 96.382812 51.171875 95.871094 50.597656 Z M 95.871094 50.597656 " fill-opacity="1" fill-rule="nonzero"/></g><path fill="#3d3939" d="M 102.476562 38.339844 C 102.652344 38.496094 102.875 38.574219 103.09375 38.574219 C 103.132812 38.574219 103.171875 38.5625 103.203125 38.5625 C 103.238281 38.5625 103.28125 38.574219 103.3125 38.574219 C 103.53125 38.574219 103.753906 38.496094 103.929688 38.339844 L 107.859375 34.855469 C 108.246094 34.507812 108.285156 33.921875 107.9375 33.539062 C 107.589844 33.152344 107.003906 33.113281 106.621094 33.460938 L 104.007812 35.773438 L 104.007812 28.832031 C 104.007812 28.3125 103.59375 27.898438 103.070312 27.898438 C 102.550781 27.898438 102.136719 28.3125 102.136719 28.832031 L 102.136719 35.546875 L 99.757812 33.449219 C 99.371094 33.101562 98.773438 33.140625 98.4375 33.527344 C 98.089844 33.910156 98.132812 34.507812 98.515625 34.84375 Z M 102.476562 38.339844 " fill-opacity="1" fill-rule="nonzero"/><path fill="#3d3939" d="M 97.179688 41.695312 L 109.226562 41.695312 C 109.660156 41.695312 110.019531 41.335938 110.019531 40.90625 L 110.019531 38.082031 C 110.019531 37.648438 109.660156 37.289062 109.226562 37.289062 C 108.796875 37.289062 108.4375 37.648438 108.4375 38.082031 L 108.4375 40.113281 L 97.96875 40.113281 L 97.96875 38.082031 C 97.96875 37.648438 97.609375 37.289062 97.179688 37.289062 C 96.746094 37.289062 96.386719 37.648438 96.386719 38.082031 L 96.386719 40.90625 C 96.394531 41.347656 96.746094 41.695312 97.179688 41.695312 Z M 97.179688 41.695312 " fill-opacity="1" fill-rule="nonzero"/></svg>